<?xml version="1.0" encoding="iso-8859-1"?>
<!-- Generator: Adobe Illustrator 19.0.0, SVG Export Plug-In . SVG Version: 6.00 Build 0)  -->
<svg version="1.1" id="Layer_1" xmlns="http://www.w3.org/2000/svg" xmlns:xlink="http://www.w3.org/1999/xlink" x="0px" y="0px"
	 viewBox="0 0 512 512" style="enable-background:new 0 0 512 512;" xml:space="preserve">
<g>
	<g>
		<g>
			<path d="M331.797,261.888l-6.677,13.333l-15.936-95.637c-0.832-4.971-5.035-8.704-10.091-8.896
				c-5.269-0.576-9.557,3.179-10.773,8.064L256,308.032l-21.653-86.613c-1.131-4.523-5.077-7.808-9.749-8.064
				c-4.651-0.299-8.96,2.539-10.603,6.891l-23.403,62.443l-10.389-20.8c-1.813-3.605-5.504-5.888-9.536-5.888h-32
				c-5.888,0-10.667,4.779-10.667,10.667s4.779,10.667,10.667,10.667h25.408l18.368,36.779c1.899,3.797,5.931,6.315,10.112,5.888
				c4.224-0.235,7.936-2.944,9.429-6.912l19.968-53.269l23.701,94.763c1.195,4.757,5.461,8.085,10.347,8.085
				s9.152-3.328,10.347-8.085l30.229-120.896l12.907,77.397c0.768,4.565,4.373,8.128,8.939,8.811
				c4.587,0.64,9.067-1.664,11.115-5.781l18.389-36.779h25.408c5.888,0,10.667-4.779,10.667-10.667S379.221,256,373.333,256h-32
				C337.301,256,333.611,258.283,331.797,261.888z"/>
			<path d="M359.552,88.448c-2.005-1.984-4.715-3.115-7.552-3.115H96c-5.888,0-10.667,4.779-10.667,10.667v320
				c0,5.888,4.779,10.667,10.667,10.667h320c5.888,0,10.667-4.779,10.667-10.667V160c0-2.837-1.131-5.547-3.115-7.552
				L359.552,88.448z M405.333,405.333H106.667V106.667h240.917l57.749,57.749V405.333z"/>
			<path d="M501.333,213.333c5.888,0,10.667-4.779,10.667-10.667S507.221,192,501.333,192h-31.851v-64h31.851
				c5.888,0,10.667-4.779,10.667-10.667s-4.779-10.667-10.667-10.667h-31.851V85.483c0-23.531-19.136-42.667-42.667-42.667h-21.483
				V10.667C405.333,4.779,400.555,0,394.667,0S384,4.779,384,10.667v32.149h-64V10.667C320,4.779,315.221,0,309.333,0
				s-10.667,4.779-10.667,10.667v32.149h-85.333V10.667C213.333,4.779,208.555,0,202.667,0S192,4.779,192,10.667v32.149h-64V10.667
				C128,4.779,123.221,0,117.333,0s-10.667,4.779-10.667,10.667v32.149H85.483c-23.531,0-42.667,19.136-42.667,42.667v21.184H10.667
				C4.779,106.667,0,111.445,0,117.333S4.779,128,10.667,128h32.149v64H10.667C4.779,192,0,196.779,0,202.667
				s4.779,10.667,10.667,10.667h32.149v85.333H10.667C4.779,298.667,0,303.445,0,309.333S4.779,320,10.667,320h32.149v64H10.667
				C4.779,384,0,388.779,0,394.667s4.779,10.667,10.667,10.667h32.149v21.483c0,23.531,19.136,42.667,42.667,42.667h21.184v31.851
				c0,5.888,4.779,10.667,10.667,10.667S128,507.221,128,501.333v-31.851h64v31.851c0,5.888,4.779,10.667,10.667,10.667
				s10.667-4.779,10.667-10.667v-31.851h85.333v31.851c0,5.888,4.779,10.667,10.667,10.667S320,507.221,320,501.333v-31.851h64
				v31.851c0,5.888,4.779,10.667,10.667,10.667s10.667-4.779,10.667-10.667v-31.851h21.483c23.531,0,42.667-19.136,42.667-42.667
				v-21.483h31.851c5.888,0,10.667-4.779,10.667-10.667S507.221,384,501.333,384h-31.851v-64h31.851
				c5.888,0,10.667-4.779,10.667-10.667s-4.779-10.667-10.667-10.667h-31.851v-85.333H501.333z M448.149,116.587
				c-0.021,0.256-0.149,0.491-0.149,0.747c0,0.256,0.128,0.491,0.149,0.747v83.861c-0.021,0.235-0.149,0.469-0.149,0.725
				c0,0.256,0.128,0.491,0.149,0.747v105.195c-0.021,0.235-0.149,0.469-0.149,0.725c0,0.256,0.128,0.491,0.149,0.747v83.861
				c-0.021,0.235-0.149,0.469-0.149,0.725s0.128,0.491,0.149,0.747v31.403c0,11.755-9.579,21.333-21.333,21.333H396.16
				c-0.512-0.064-0.96-0.299-1.493-0.299s-0.981,0.235-1.493,0.299h-82.347c-0.512-0.064-0.96-0.299-1.493-0.299
				s-0.981,0.235-1.493,0.299H204.16c-0.512-0.064-0.96-0.299-1.493-0.299s-0.981,0.235-1.493,0.299h-82.347
				c-0.512-0.064-0.96-0.299-1.493-0.299c-0.533,0-0.981,0.235-1.493,0.299H85.483c-11.755,0-21.333-9.579-21.333-21.333V85.483
				c0-11.755,9.579-21.333,21.333-21.333h341.333c11.755,0,21.333,9.579,21.333,21.333V116.587z"/>
		</g>
	</g>
</g>
<g>
</g>
<g>
</g>
<g>
</g>
<g>
</g>
<g>
</g>
<g>
</g>
<g>
</g>
<g>
</g>
<g>
</g>
<g>
</g>
<g>
</g>
<g>
</g>
<g>
</g>
<g>
</g>
<g>
</g>
</svg>
