<?xml version="1.0" encoding="iso-8859-1"?>
<!-- Generator: Adobe Illustrator 19.0.0, SVG Export Plug-In . SVG Version: 6.00 Build 0)  -->
<svg version="1.1" id="Layer_1" xmlns="http://www.w3.org/2000/svg" xmlns:xlink="http://www.w3.org/1999/xlink" x="0px" y="0px"
	 viewBox="0 0 490.667 490.667" style="enable-background:new 0 0 490.667 490.667;" xml:space="preserve">
<g>
	<g>
		<g>
			<path d="M437.333,74.667h-384c-5.888,0-10.667,4.779-10.667,10.667v256c0,5.888,4.779,10.667,10.667,10.667h384
				c5.888,0,10.667-4.779,10.667-10.667v-256C448,79.445,443.221,74.667,437.333,74.667z M426.667,330.667H64V96h362.667V330.667z"
				/>
			<path d="M458.667,32H32C14.357,32,0,46.357,0,64v298.667c0,17.643,14.357,32,32,32h202.667v42.667h-96
				c-5.888,0-10.667,4.779-10.667,10.667s4.779,10.667,10.667,10.667H352c5.888,0,10.667-4.779,10.667-10.667
				s-4.779-10.667-10.667-10.667h-96v-42.667h202.667c17.643,0,32-14.357,32-32V64C490.667,46.357,476.309,32,458.667,32z
				 M469.333,362.667c0,5.888-4.779,10.667-10.667,10.667H32c-5.888,0-10.667-4.779-10.667-10.667V64
				c0-5.888,4.779-10.667,10.667-10.667h426.667c5.888,0,10.667,4.779,10.667,10.667V362.667z"/>
		</g>
	</g>
</g>
<g>
</g>
<g>
</g>
<g>
</g>
<g>
</g>
<g>
</g>
<g>
</g>
<g>
</g>
<g>
</g>
<g>
</g>
<g>
</g>
<g>
</g>
<g>
</g>
<g>
</g>
<g>
</g>
<g>
</g>
</svg>
