<?xml version="1.0" encoding="iso-8859-1"?>
<!-- Generator: Adobe Illustrator 19.0.0, SVG Export Plug-In . SVG Version: 6.00 Build 0)  -->
<svg version="1.1" id="Layer_1" xmlns="http://www.w3.org/2000/svg" xmlns:xlink="http://www.w3.org/1999/xlink" x="0px" y="0px"
	 viewBox="0 0 512 512" style="enable-background:new 0 0 512 512;" xml:space="preserve">
<g>
	<g>
		<path d="M501.333,85.333c-5.888,0-10.667,4.779-10.667,10.667v277.333C490.667,414.507,457.173,448,416,448
			s-74.667-33.493-74.667-74.667V96c0-52.928-43.072-96-96-96H224c-49.28,0-89.536,37.461-94.912,85.333H96
			c-52.928,0-96,43.072-96,96v192C0,449.792,62.208,512,138.667,512s138.667-62.208,138.667-138.667v-192c0-52.928-43.072-96-96-96
			h-30.912c5.227-36.096,36.053-64,73.579-64h21.333C286.507,21.333,320,54.827,320,96v277.333c0,52.928,43.072,96,96,96
			s96-43.072,96-96V96C512,90.112,507.221,85.333,501.333,85.333z M138.667,149.333c2.667,0,10.667,11.349,10.667,32
			c0,20.651-8,32-10.667,32c-2.667,0-10.667-11.349-10.667-32C128,160.683,136,149.333,138.667,149.333z M21.333,181.333
			c0-41.173,33.493-74.667,74.667-74.667h32v24.384c-12.651,7.04-21.333,26.219-21.333,50.283c0,24.064,8.683,43.243,21.333,50.283
			V256H21.333V181.333z M256,373.333c0,64.704-52.629,117.333-117.333,117.333S21.333,438.037,21.333,373.333v-96H256V373.333z
			 M181.333,106.667c41.173,0,74.667,33.493,74.667,74.667V256H149.333v-24.384c12.651-7.04,21.333-26.219,21.333-50.283
			c0-24.064-8.683-43.243-21.333-50.283v-24.384H181.333z"/>
	</g>
</g>
<g>
</g>
<g>
</g>
<g>
</g>
<g>
</g>
<g>
</g>
<g>
</g>
<g>
</g>
<g>
</g>
<g>
</g>
<g>
</g>
<g>
</g>
<g>
</g>
<g>
</g>
<g>
</g>
<g>
</g>
</svg>
